<!DOCTYPE svg PUBLIC "-//W3C//DTD SVG 1.1//EN" "http://www.w3.org/Graphics/SVG/1.1/DTD/svg11.dtd">
<svg version="1.1" width="98" height="18" viewBox="0 0 98 18" fill="none" xmlns="http://www.w3.org/2000/svg">
  <path d="M8.96484 1.05469L0.949219 5.48438L0.914062 7.27734H1.93359V13.1484H16.0664V7.27734H17.0859V5.51953L8.96484 1.05469ZM3.44531 11.5312V5.83594L8.96484 2.74219L14.4844 5.87109V11.4961L3.44531 11.5312ZM1.96875 16.3477C1.96875 15.9492 2.15625 15.75 2.53125 15.75C2.90625 15.75 3.09375 15.9492 3.09375 16.3477C3.09375 16.7461 2.90625 16.9453 2.53125 16.9453C2.15625 16.9453 1.96875 16.7461 1.96875 16.3477ZM2.21484 16.3477C2.21484 16.6289 2.32031 16.7695 2.53125 16.7695C2.74219 16.7695 2.84766 16.6289 2.84766 16.3477C2.84766 16.0898 2.74219 15.9609 2.53125 15.9609C2.32031 15.9609 2.21484 16.0898 2.21484 16.3477ZM3.76172 16.9453H3.51562V15.7852H4.04297C4.27734 15.7852 4.39453 15.9023 4.39453 16.1367C4.39453 16.3945 4.27734 16.5234 4.04297 16.5234H3.76172V16.9453ZM3.97266 16.3125C4.11328 16.3125 4.18359 16.2539 4.18359 16.1367C4.18359 16.0195 4.10156 15.9609 3.9375 15.9609H3.76172V16.3125H3.97266ZM5.09766 16.9453H4.85156V15.7852H5.37891C5.61328 15.7852 5.73047 15.9023 5.73047 16.1367C5.73047 16.3945 5.61328 16.5234 5.37891 16.5234H5.09766V16.9453ZM5.30859 16.3125C5.42578 16.3125 5.48438 16.2539 5.48438 16.1367C5.48438 16.0195 5.41406 15.9609 5.27344 15.9609H5.09766V16.3125H5.30859ZM6.11719 16.3477C6.11719 15.9492 6.30469 15.75 6.67969 15.75C7.05469 15.75 7.24219 15.9492 7.24219 16.3477C7.24219 16.7461 7.05469 16.9453 6.67969 16.9453C6.30469 16.9453 6.11719 16.7461 6.11719 16.3477ZM6.36328 16.3477C6.36328 16.6289 6.46875 16.7695 6.67969 16.7695C6.89062 16.7695 6.99609 16.6289 6.99609 16.3477C6.99609 16.0898 6.89062 15.9609 6.67969 15.9609C6.46875 15.9609 6.36328 16.0898 6.36328 16.3477ZM7.66406 15.7852H8.26172C8.49609 15.7852 8.61328 15.8906 8.61328 16.1016C8.61328 16.2422 8.55469 16.3359 8.4375 16.3828C8.53125 16.4062 8.57812 16.5 8.57812 16.6641C8.57812 16.8047 8.60156 16.8867 8.64844 16.9102V16.9453H8.36719C8.36719 16.9219 8.35547 16.8867 8.33203 16.8398C8.33203 16.793 8.33203 16.7461 8.33203 16.6992C8.33203 16.5586 8.27344 16.4883 8.15625 16.4883H7.91016V16.9453H7.66406V15.7852ZM8.19141 16.2773C8.30859 16.2773 8.36719 16.2305 8.36719 16.1367C8.36719 16.0195 8.32031 15.9609 8.22656 15.9609H7.91016V16.2773H8.19141ZM9.5625 16.9453H9.31641V15.9961H8.96484V15.7852H9.87891V15.9961H9.5625V16.9453ZM11.2148 16.5234C11.2148 16.8047 11.0508 16.9453 10.7227 16.9453C10.5586 16.9453 10.4414 16.8984 10.3711 16.8047C10.3477 16.7812 10.3125 16.6875 10.2656 16.5234V15.7852H10.5117V16.5234C10.5117 16.6875 10.582 16.7695 10.7227 16.7695C10.8867 16.7695 10.9688 16.6875 10.9688 16.5234V15.7852H11.2148V16.5234ZM12.4102 15.7852H12.6211V16.9453H12.4102L11.918 16.1016V16.9453H11.6719V15.7852H11.9531L12.4102 16.5938V15.7852ZM13.0781 15.7852H13.3242V16.9453H13.0781V15.7852ZM14.3086 16.9453H14.0625V15.9961H13.7109V15.7852H14.6602V15.9961H14.3086V16.9453ZM15.5742 16.9453H15.3281V16.4883L14.9414 15.7852H15.2227L15.4688 16.2773L15.7148 15.7852H15.9609L15.5742 16.4883V16.9453ZM2.84766 14.3086H2.25V14.5547H2.8125V14.7305H2.25V15.0469H2.88281V15.2578H2.00391V14.0977H2.84766V14.3086ZM4.07812 15.3281L3.9375 15.1875C3.84375 15.2578 3.73828 15.293 3.62109 15.293C3.26953 15.293 3.09375 15.082 3.09375 14.6602C3.09375 14.2617 3.26953 14.0625 3.62109 14.0625C3.99609 14.0625 4.18359 14.2617 4.18359 14.6602C4.18359 14.8711 4.14844 15.0117 4.07812 15.082L4.18359 15.1875L4.07812 15.3281ZM3.76172 14.8008L3.90234 14.9062C3.92578 14.8828 3.9375 14.8008 3.9375 14.6602C3.9375 14.4023 3.83203 14.2734 3.62109 14.2734C3.41016 14.2734 3.30469 14.4023 3.30469 14.6602C3.30469 14.9414 3.41016 15.082 3.62109 15.082C3.69141 15.082 3.73828 15.0703 3.76172 15.0469L3.65625 14.9414L3.76172 14.8008ZM5.34375 14.8359C5.34375 15.1406 5.17969 15.293 4.85156 15.293C4.71094 15.293 4.59375 15.2461 4.5 15.1523C4.42969 15.082 4.39453 14.9883 4.39453 14.8711V14.0977H4.64062V14.8359C4.64062 15 4.71094 15.082 4.85156 15.082C5.01562 15.082 5.09766 15.0117 5.09766 14.8711V14.0977H5.34375V14.8359ZM5.69531 15.2578H5.44922L5.87109 14.0977H6.11719L6.53906 15.2578H6.29297L6.1875 15.0117H5.76562L5.69531 15.2578ZM5.83594 14.8008H6.15234L5.97656 14.3438L5.83594 14.8008ZM6.99609 15.0469H7.55859V15.2578H6.75V14.0977H6.99609V15.0469ZM8.92969 14.7305V15.2578H8.68359V14.0977H8.92969V14.5195H9.38672V14.0977H9.63281V15.2578H9.38672V14.7305H8.92969ZM10.3359 14.0625C10.7109 14.0625 10.8984 14.2617 10.8984 14.6602C10.8984 15.082 10.7109 15.293 10.3359 15.293C9.98438 15.293 9.80859 15.082 9.80859 14.6602C9.80859 14.2617 9.98438 14.0625 10.3359 14.0625ZM10.3359 15.082C10.5469 15.082 10.6523 14.9414 10.6523 14.6602C10.6523 14.4023 10.5469 14.2734 10.3359 14.2734C10.1484 14.2734 10.0547 14.4023 10.0547 14.6602C10.0547 14.9414 10.1484 15.082 10.3359 15.082ZM12.0234 14.8359C12.0234 15.1406 11.8594 15.293 11.5312 15.293C11.3906 15.293 11.2734 15.2461 11.1797 15.1523C11.1328 15.1055 11.1094 15.0117 11.1094 14.8711V14.0977H11.3555V14.8359C11.3555 15 11.4141 15.082 11.5312 15.082C11.6953 15.082 11.7773 15.0117 11.7773 14.8711V14.0977H12.0234V14.8359ZM12.4453 14.9062C12.4453 15.0234 12.5156 15.082 12.6562 15.082C12.8203 15.082 12.9023 15.0352 12.9023 14.9414C12.9023 14.8711 12.832 14.8242 12.6914 14.8008L12.5859 14.7656C12.3281 14.7188 12.1992 14.6016 12.1992 14.4141C12.1992 14.1797 12.3516 14.0625 12.6562 14.0625C12.9609 14.0625 13.1133 14.1914 13.1133 14.4492H12.8672C12.8672 14.332 12.7969 14.2734 12.6562 14.2734C12.5156 14.2734 12.4453 14.3203 12.4453 14.4141C12.4453 14.4844 12.4805 14.5195 12.5508 14.5195L12.832 14.5898C13.043 14.6367 13.1484 14.7422 13.1484 14.9062C13.1484 15.1641 12.9961 15.293 12.6914 15.293C12.3633 15.293 12.1992 15.1641 12.1992 14.9062H12.4453ZM13.3242 14.0977H13.5352V15.2578H13.3242V14.0977ZM14.4844 14.0977H14.6953V15.2578H14.4492L13.9922 14.4141V15.2578H13.7461V14.0977H14.0273L14.4844 14.9062V14.0977ZM15.4688 14.625H15.9609V15.2578H15.7852L15.75 15.1172C15.7031 15.2344 15.5859 15.293 15.3984 15.293C15.0469 15.293 14.8711 15.082 14.8711 14.6602C14.8711 14.2617 15.0586 14.0625 15.4336 14.0625C15.7148 14.0625 15.8906 14.1914 15.9609 14.4492H15.7148C15.7148 14.332 15.6328 14.2734 15.4688 14.2734C15.2344 14.2734 15.1172 14.4141 15.1172 14.6953C15.1172 14.9531 15.2344 15.082 15.4688 15.082C15.6094 15.082 15.7031 15 15.75 14.8359H15.4688V14.625ZM6.1875 6.11719H11.6016V7.91016H6.1875V6.11719ZM6.1875 8.57812H11.6016V10.3711H6.1875V8.57812ZM38.6719 1.54688H38.5664C37.9336 1.64063 37.4297 1.96875 37.0547 2.53125C36.6797 3.09375 36.4688 3.71484 36.4219 4.39453C36.3281 5.00391 36.4102 5.60156 36.668 6.1875C36.9492 6.75 37.3828 7.08984 37.9688 7.20703C38.1797 7.23047 38.3672 7.23047 38.5312 7.20703C39.2344 6.94922 39.7617 6.45703 40.1133 5.73047C40.4648 5.00391 40.582 4.25391 40.4648 3.48047C40.418 2.96484 40.2305 2.50781 39.9023 2.10938C39.5742 1.71094 39.1641 1.52344 38.6719 1.54688ZM33.0469 1.58203C32.6484 1.60547 32.2969 1.79297 31.9922 2.14453C31.6875 2.47266 31.5117 2.83594 31.4648 3.23438C31.3242 4.05469 31.4297 4.86328 31.7812 5.66016C32.1562 6.45703 32.7305 6.97266 33.5039 7.20703C33.6211 7.23047 33.7734 7.24219 33.9609 7.24219C34.4766 7.14844 34.8633 6.86719 35.1211 6.39844C35.4023 5.90625 35.5195 5.37891 35.4727 4.81641C35.4492 4.08984 35.25 3.42187 34.875 2.8125C34.5234 2.20313 34.0312 1.81641 33.3984 1.65234C33.2578 1.60547 33.1406 1.58203 33.0469 1.58203ZM42.2578 6.01172C41.5781 6.05859 41.0039 6.375 40.5352 6.96094C40.0664 7.52344 39.7969 8.15625 39.7266 8.85938C39.6094 9.375 39.6797 9.87891 39.9375 10.3711C40.2188 10.8633 40.6172 11.1328 41.1328 11.1797C41.8594 11.1562 42.4688 10.8281 42.9609 10.1953C43.4531 9.5625 43.7109 8.87109 43.7344 8.12109C43.7812 7.62891 43.6641 7.16016 43.3828 6.71484C43.125 6.26953 42.75 6.03516 42.2578 6.01172ZM29.7773 6.32812C29.0508 6.32812 28.582 6.65625 28.3711 7.3125C28.1133 8.15625 28.207 9.01172 28.6523 9.87891C29.1211 10.7227 29.7891 11.2266 30.6562 11.3906C31.0078 11.4609 31.3242 11.3906 31.6055 11.1797C31.9102 10.9453 32.1094 10.6406 32.2031 10.2656C32.3906 9.53906 32.3203 8.8125 31.9922 8.08594C31.6641 7.35938 31.1602 6.83203 30.4805 6.50391C30.2461 6.38672 30.0117 6.32812 29.7773 6.32812ZM36.1758 9.28125C34.9102 9.28125 33.8555 9.78516 33.0117 10.793C32.0742 11.9648 31.4766 13.1602 31.2188 14.3789C31.0547 14.8477 31.125 15.3047 31.4297 15.75C31.7344 16.1953 32.1445 16.418 32.6602 16.418C33.082 16.4414 33.668 16.3125 34.418 16.0312C35.1914 15.7266 35.7656 15.5742 36.1406 15.5742C36.2578 15.4805 36.5156 15.4805 36.9141 15.5742C37.3125 15.668 37.5469 15.7266 37.6172 15.75C37.7109 15.75 37.9453 15.832 38.3203 15.9961C38.7188 16.1602 38.9531 16.2539 39.0234 16.2773C39.4219 16.4648 39.8555 16.5117 40.3242 16.418C40.793 16.3008 41.1211 16.043 41.3086 15.6445C41.5195 15.0586 41.3438 14.2031 40.7812 13.0781C40.4062 12.5156 40.1133 12.0938 39.9023 11.8125C39.7148 11.5078 39.4219 11.1562 39.0234 10.7578C38.6484 10.3359 38.2617 9.99609 37.8633 9.73828C37.3477 9.43359 36.7852 9.28125 36.1758 9.28125ZM56.9531 9.66797H67.0781V11.25H56.9531V9.66797ZM67.3945 9.35156H67.9219C67.9219 9.32812 67.9219 9.25781 67.9219 9.14062C67.9219 9.02344 67.9219 8.95312 67.9219 8.92969C67.9219 8.88281 67.9219 8.8125 67.9219 8.71875C67.9219 8.60156 67.9102 8.53125 67.8867 8.50781C67.8867 8.46094 67.875 8.39062 67.8516 8.29688C67.8516 8.20312 67.8398 8.13281 67.8164 8.08594C67.793 8.03906 67.7578 7.99219 67.7109 7.94531C67.6875 7.875 67.6523 7.81641 67.6055 7.76953C67.5586 7.72266 67.5 7.67578 67.4297 7.62891C67.3828 7.58203 67.3242 7.53516 67.2539 7.48828C67.1367 7.41797 66.7617 7.38281 66.1289 7.38281C65.4961 7.38281 64.9805 7.3125 64.582 7.17188C64.207 7.03125 64.1133 6.73828 64.3008 6.29297C64.3711 6.01172 64.4062 5.84766 64.4062 5.80078C64.4062 5.75391 64.2891 5.73047 64.0547 5.73047C63.8438 5.73047 63.6797 5.70703 63.5625 5.66016C63.1875 5.51953 62.9531 5.28516 62.8594 4.95703C62.7656 4.62891 62.8125 4.32422 63 4.04297C63.1875 3.73828 63.4688 3.5625 63.8438 3.51562L63.8789 2.98828C63.4805 3.03516 63.1641 3.14062 62.9297 3.30469C62.2969 3.79688 62.0977 4.39453 62.332 5.09766C62.5664 5.77734 63.0586 6.16406 63.8086 6.25781C63.832 6.46875 63.8203 6.65625 63.7734 6.82031C63.7266 6.96094 63.7617 7.08984 63.8789 7.20703C63.9961 7.32422 64.0781 7.42969 64.125 7.52344C64.1719 7.59375 64.2773 7.65234 64.4414 7.69922C64.6289 7.74609 64.7695 7.78125 64.8633 7.80469C64.957 7.82812 65.1094 7.85156 65.3203 7.875C65.5312 7.875 65.6836 7.875 65.7773 7.875C65.8945 7.875 66.0469 7.875 66.2344 7.875C66.4453 7.875 66.5859 7.875 66.6562 7.875C67.1484 7.875 67.3945 8.32031 67.3945 9.21094C67.3945 9.28125 67.3945 9.32812 67.3945 9.35156ZM68.2031 9.35156H68.7656V8.36719C68.7656 7.61719 68.4961 7.01953 67.957 6.57422C67.4414 6.12891 66.8203 5.94141 66.0938 6.01172C66.3281 5.40234 66.2695 4.85156 65.918 4.35938C65.5898 3.84375 65.0977 3.57422 64.4414 3.55078V4.04297C64.9102 4.06641 65.2734 4.27734 65.5312 4.67578C65.8125 5.07422 65.8477 5.49609 65.6367 5.94141L65.4961 6.11719C65.4023 6.21094 65.3672 6.30469 65.3906 6.39844C65.4375 6.53906 65.543 6.60938 65.707 6.60938C66.5273 6.60938 67.0781 6.67969 67.3594 6.82031C67.5234 6.91406 67.6641 7.01953 67.7812 7.13672C67.8984 7.25391 67.9805 7.37109 68.0273 7.48828C68.0977 7.58203 68.1445 7.73438 68.168 7.94531C68.1914 8.13281 68.2031 8.27344 68.2031 8.36719C68.2031 8.46094 68.2031 8.63672 68.2031 8.89453C68.2031 9.12891 68.2031 9.28125 68.2031 9.35156ZM67.3945 9.66797H67.957V11.25H67.3945V9.66797ZM68.2383 9.66797H68.7656V11.25H68.2383V9.66797ZM68.7656 14.8008C67.1719 16.3945 65.25 17.1914 63 17.1914C60.75 17.1914 58.8164 16.3945 57.1992 14.8008C55.6055 13.1836 54.8086 11.25 54.8086 9C54.8086 6.75 55.6055 4.82812 57.1992 3.23438C58.8164 1.61719 60.75 0.808594 63 0.808594C65.25 0.808594 67.1719 1.61719 68.7656 3.23438C70.3828 4.82812 71.1914 6.75 71.1914 9C71.1914 11.25 70.3828 13.1836 68.7656 14.8008ZM68.1328 3.86719C66.7266 2.4375 65.0156 1.72266 63 1.72266C60.9844 1.72266 59.2617 2.4375 57.832 3.86719C56.4258 5.27344 55.7227 6.98438 55.7227 9C55.7227 11.0156 56.4258 12.7383 57.832 14.168C59.2617 15.5742 60.9844 16.2773 63 16.2773C65.0156 16.2773 66.7266 15.5742 68.1328 14.168C69.5625 12.7383 70.2773 11.0156 70.2773 9C70.2773 6.98438 69.5625 5.27344 68.1328 3.86719ZM56.9883 4.07812L57.6211 3.44531L68.5195 14.3789L67.8867 15.0117L56.9883 4.07812ZM83.8828 11.8828C83.8828 13.0547 84.293 14.0625 85.1133 14.9062C85.9336 15.7266 86.9297 16.1367 88.1016 16.1367C89.2031 16.1367 90.1523 15.7734 90.9492 15.0469C91.7695 14.2969 92.2383 13.3828 92.3555 12.3047L93.1289 13.6406C92.7539 14.6953 92.1094 15.5508 91.1953 16.207C90.2812 16.8633 89.25 17.1914 88.1016 17.1914C86.6484 17.1914 85.4062 16.6758 84.375 15.6445C83.3438 14.5898 82.8281 13.3359 82.8281 11.8828C82.8281 10.9219 83.0625 10.0312 83.5312 9.21094C84.0234 8.39062 84.668 7.74609 85.4648 7.27734V8.54297C84.4102 9.41016 83.8828 10.5234 83.8828 11.8828ZM88.3828 3.19922C88.125 3.45703 87.8086 3.58594 87.4336 3.58594C87.0586 3.58594 86.7305 3.45703 86.4492 3.19922C86.168 2.91797 86.0273 2.58984 86.0273 2.21484C86.0273 1.81641 86.1562 1.48828 86.4141 1.23047C86.6953 0.949219 87.0352 0.808594 87.4336 0.808594C87.8086 0.808594 88.125 0.949219 88.3828 1.23047C88.6641 1.51172 88.8047 1.83984 88.8047 2.21484C88.8047 2.58984 88.6641 2.91797 88.3828 3.19922ZM96.8906 13.7461L95.2383 14.6953C95.2148 14.7188 95.168 14.7305 95.0977 14.7305L94.6758 15.0117L92.3906 11.0391H87.7852C87.7617 11.0391 87.75 11.0391 87.75 11.0391C87.75 11.0156 87.7383 11.0039 87.7148 11.0039C87.668 11.0273 87.5742 11.0391 87.4336 11.0391C87.082 11.0391 86.7773 10.9219 86.5195 10.6875C86.2852 10.4297 86.168 10.1367 86.168 9.80859V5.27344C86.168 4.92188 86.2852 4.62891 86.5195 4.39453C86.7773 4.16016 87.082 4.04297 87.4336 4.04297C87.7617 4.04297 88.043 4.16016 88.2773 4.39453C88.5352 4.62891 88.6641 4.92188 88.6641 5.27344V6.89062H91.6523C91.8164 6.89062 91.9453 6.94922 92.0391 7.06641C92.1562 7.16016 92.2148 7.27734 92.2148 7.41797C92.2148 7.55859 92.1562 7.6875 92.0391 7.80469C91.9453 7.89844 91.8164 7.94531 91.6523 7.94531H88.6641V9H92.5312C92.7656 9 92.9648 9.08203 93.1289 9.24609C93.293 9.38672 93.3867 9.57422 93.4102 9.80859L93.4805 9.77344L95.4492 13.1836L96.293 12.6914C96.6211 12.4805 96.8906 12.5508 97.1016 12.9023C97.3125 13.2539 97.2422 13.5352 96.8906 13.7461Z" fill="white"/>
</svg>
